<?xml version="1.0" encoding="utf-8"?>
<!-- Generator: $$$/GeneralStr/196=Adobe Illustrator 27.6.0, SVG Export Plug-In . SVG Version: 6.00 Build 0)  -->
<svg version="1.1" id="Ebene_1" xmlns="http://www.w3.org/2000/svg" xmlns:xlink="http://www.w3.org/1999/xlink" x="0px" y="0px"
	 viewBox="0 0 509.6 509.6" style="enable-background:new 0 0 509.6 509.6;" xml:space="preserve">
<style type="text/css">
	.st0{fill:#FFFFFF;}
</style>
<g>
	<path class="st0" d="M425,88.7c-40.9-34.6-99.4-54.8-170.9-54.8c-67.9,0-125.8,19.1-167.2,53.3c-20.7,17-37.2,37.9-48.4,61.5
		c-11.2,23.7-17.2,50.1-17.2,78.2c0,33.9,7.1,65.3,21.4,92.7c13.7,26.1,34,48.4,59.9,65.8C96.5,411.2,87.9,448,87.9,448
		c-0.4,1.7-0.6,3.4-0.6,5.1c0,6.9,3.2,13.6,8.8,17.9l0,0v0c4,3.1,8.9,4.6,13.7,4.6c3.6,0,7.3-0.9,10.7-2.7l0.3-0.2l0.3-0.2
		c0,0,4.6-2.7,11.7-6.9c10.6-6.3,26.9-15.9,41.3-24.4c7.2-4.3,14-8.2,19.4-11.4c5.4-3.2,9.6-5.6,11.1-6.4l0.1,0l0.1-0.1
		c20.2-11.4,36.2-13.3,49.1-13.4c53.6-0.1,110.6-10.5,156.1-38.9c22.7-14.2,42.5-33.2,56.4-57.5c13.9-24.3,21.8-53.7,21.8-87.7
		C488.5,172.3,465.9,123.3,425,88.7z M436.1,296.1c-8,14-18.6,25.8-31.2,35.8c-19,15-42.8,25.8-68.9,32.8
		c-26.1,7-54.4,10.1-81.9,10.1c-16.9-0.1-40.5,3.1-66.4,18v0c-2.9,1.6-9.2,5.3-17.7,10.2c-12.1,7.1-27.9,16.4-41.2,24.3
		c3.2-13.8,7-29.7,9.8-41.4v0c0.5-2,0.8-4.1,0.8-6.5c0-3.4-0.8-7.5-2.8-11c-1.5-2.6-3.3-4.6-5-6c-2.5-2.1-4.4-3-5.4-3.6l-1.1-0.5
		l-0.1-0.1c-22.9-14.8-39.8-33.1-51.3-54.9c-11.4-21.8-17.4-47.2-17.4-76.3c0-23.2,4.8-44.3,13.8-63.1
		c13.4-28.2,36.2-51.6,67.3-68.3c31.1-16.7,70.6-26.4,116.6-26.4c65,0,114.9,18.3,148.2,46.5c33.3,28.3,50.8,66.4,50.9,110.3
		C453.2,254.6,446.8,277.4,436.1,296.1z"/>
	<path class="st0" d="M144.5,201.2c-14.8,0-26.9,12-26.9,26.9c0,14.8,12,26.9,26.9,26.9c14.9,0,26.9-12,26.9-26.9
		C171.4,213.2,159.3,201.2,144.5,201.2z"/>
	<path class="st0" d="M249.4,201.2c-14.9,0-26.9,12-26.9,26.9c0,14.8,12,26.9,26.9,26.9c14.9,0,26.9-12,26.9-26.9
		C276.3,213.2,264.2,201.2,249.4,201.2z"/>
	<path class="st0" d="M354.3,201.2c-14.8,0-26.9,12-26.9,26.9c0,14.8,12,26.9,26.9,26.9c14.9,0,26.9-12,26.9-26.9
		C381.2,213.2,369.1,201.2,354.3,201.2z"/>
</g>
</svg>
